<?xml version="1.0" encoding="UTF-8"?>
<!-- Generator: visioncortex VTracer 0.6.12 -->
<svg version="1.1" xmlns="http://www.w3.org/2000/svg" width="1500" height="1500">
<path d="M0 0 C20.255 -0.047 40.51 -0.082 60.766 -0.104 C70.173 -0.114 79.579 -0.128 88.986 -0.151 C97.195 -0.171 105.403 -0.184 113.611 -0.188 C117.949 -0.191 122.287 -0.197 126.624 -0.211 C187.183 -0.409 187.183 -0.409 214 13 C214 12.01 214 11.02 214 10 C233.168 9.977 252.336 9.959 271.504 9.948 C280.406 9.943 289.307 9.936 298.209 9.925 C305.973 9.915 313.738 9.908 321.503 9.906 C325.608 9.905 329.714 9.902 333.82 9.894 C337.696 9.887 341.573 9.885 345.45 9.887 C346.861 9.887 348.272 9.885 349.683 9.881 C374.892 9.815 374.892 9.815 386.938 12.75 C387.312 12.839 387.312 12.839 389.207 13.286 C391.477 13.836 393.739 14.413 396 15 C396.687 15.175 397.375 15.35 398.083 15.531 C406.338 17.689 413.867 20.678 421.438 24.625 C421.808 24.817 421.808 24.817 423.682 25.79 C428.872 28.617 428.872 28.617 430 32 C430.99 32 431.98 32 433 32 C433 32.66 433 33.32 433 34 C433.581 34.257 434.163 34.513 434.762 34.777 C450.989 43.642 460.712 66.357 466 83 C471.501 102.107 472.519 121.965 472.446 141.73 C472.438 145.233 472.466 148.735 472.498 152.238 C472.601 185.276 467.744 221.023 444.75 246.492 C442.872 248.377 440.959 250.2 439 252 C438.492 252.565 437.984 253.129 437.461 253.711 C436 255 436 255 433 255 C433 255.66 433 256.32 433 257 C430.48 258.691 430.48 258.691 427.188 260.562 C426.109 261.183 425.03 261.803 423.918 262.441 C421 264 421 264 418 265 C420.838 267.384 423.692 268.711 427.09 270.137 C430.201 271.543 433.026 273.278 435.938 275.062 C436.526 275.414 437.114 275.765 437.721 276.127 C439.185 277.026 440.598 278.007 442 279 C442 279.66 442 280.32 442 281 C442.99 281 443.98 281 445 281 C446.366 282.64 447.695 284.311 449 286 C450.643 287.362 452.308 288.699 454 290 C455.812 291.562 455.812 291.562 457 293 C457 293.99 457 294.98 457 296 C457.66 296 458.32 296 459 296 C460.197 298.154 461.392 300.309 462.578 302.469 C463.431 303.987 464.309 305.493 465.234 306.969 C481.792 334.063 481.535 369.933 481.391 400.586 C481.374 404.263 481.384 407.939 481.401 411.616 C481.493 434.624 481.115 457.91 474 480 C473.653 481.212 473.306 482.423 472.949 483.672 C469.079 496.494 462.731 508.778 454 519 C453.34 519 452.68 519 452 519 C451.751 519.576 451.502 520.152 451.246 520.746 C449.822 523.322 448.176 525.02 446.062 527.062 C445.373 527.734 444.683 528.406 443.973 529.098 C443.322 529.725 442.671 530.353 442 531 C441.483 531.576 440.966 532.152 440.434 532.746 C439 534 439 534 436 534 C436 534.66 436 535.32 436 536 C426.086 542.82 414.613 548.747 403 552 C402.584 552.122 402.584 552.122 400.48 552.738 C379.527 558.453 358.678 558.415 337.16 558.304 C333.244 558.287 329.328 558.286 325.412 558.284 C314.024 558.268 302.637 558.226 291.25 558.188 C265.757 558.126 240.265 558.064 214 558 C214 495.63 214 433.26 214 369 C210.04 370.65 206.08 372.3 202 374 C168.252 385.672 130.767 382.401 96 383 C95.67 458.57 95.34 534.14 95 612 C63.65 612 32.3 612 0 612 C-0.33 439.08 -0.66 266.16 -1 88 C-7.6 87.835 -7.6 87.835 -41 87 C-41 242.43 -41 397.86 -41 558 C-69.38 558 -97.76 558 -127 558 C-127 402.57 -127 247.14 -127 87 C-156.7 87 -186.4 87 -217 87 C-217 61.59 -217 36.18 -217 10 C-145.72 9.67 -74.44 9.34 -1 9 C-0.67 6.03 -0.34 3.06 0 0 Z M95 87 C94.977 113.972 94.959 140.944 94.948 167.917 C94.943 180.439 94.936 192.962 94.925 205.485 C94.915 216.395 94.908 227.306 94.906 238.216 C94.905 243.997 94.902 249.778 94.894 255.559 C94.888 260.993 94.885 266.427 94.887 271.862 C94.887 273.863 94.885 275.863 94.881 277.864 C94.876 280.583 94.877 283.302 94.88 286.021 C94.877 286.824 94.874 287.626 94.871 288.453 C94.886 293.886 94.886 293.886 96 295 C97.516 295.109 99.037 295.149 100.557 295.161 C101.043 295.166 101.043 295.166 103.504 295.19 C104.036 295.192 104.036 295.192 106.727 295.203 C107.822 295.209 108.917 295.215 110.045 295.22 C112.377 295.23 114.709 295.236 117.041 295.24 C120.561 295.25 124.081 295.281 127.602 295.312 C159.653 295.467 159.653 295.467 172.125 286.125 C172.446 285.889 172.446 285.889 174.07 284.695 C182.288 277.476 186.118 267.693 187.659 257.151 C187.785 256.286 187.912 255.422 188.042 254.532 C189.54 243.272 189.433 231.99 189.398 220.652 C189.4 218.26 189.403 215.868 189.407 213.476 C189.412 208.497 189.405 203.517 189.391 198.538 C189.374 192.209 189.384 185.88 189.402 179.551 C189.413 174.622 189.409 169.693 189.401 164.764 C189.399 162.432 189.402 160.101 189.409 157.769 C189.507 116.328 189.507 116.328 179 102 C178.34 102 177.68 102 177 102 C176.835 101.505 176.835 101.505 176 99 C175.34 99 174.68 99 174 99 C173.835 98.505 173.835 98.505 173 96 C170.918 94.5 170.918 94.5 168.188 93 C167.751 92.752 167.751 92.752 165.543 91.5 C156.102 87.503 146.961 86.569 136.797 86.707 C135.593 86.711 134.389 86.716 133.149 86.72 C129.349 86.737 125.55 86.774 121.75 86.812 C119.155 86.828 116.56 86.841 113.965 86.854 C107.643 86.886 101.322 86.936 95 87 Z M300 88 C299.903 89.873 299.878 91.75 299.88 93.625 C299.878 94.846 299.877 96.068 299.876 97.326 C299.879 98.692 299.883 100.058 299.886 101.424 C299.887 102.853 299.887 104.281 299.886 105.71 C299.886 109.6 299.892 113.491 299.899 117.381 C299.905 121.442 299.905 125.504 299.907 129.565 C299.91 137.261 299.918 144.957 299.928 152.652 C299.939 161.412 299.945 170.171 299.95 178.93 C299.96 196.953 299.978 214.977 300 233 C305.992 233.1 311.983 233.172 317.975 233.22 C320.007 233.24 322.038 233.267 324.07 233.302 C338.9 233.55 351.591 232.979 365 226 C365.681 225.711 366.361 225.423 367.062 225.125 C374.707 220.686 381.133 211.08 383.388 202.664 C386.424 189.442 386.342 176.081 386.316 162.585 C386.313 159.139 386.336 155.693 386.361 152.246 C386.476 112.79 386.476 112.79 374 99 C373.34 99 372.68 99 372 99 C371.835 98.505 371.835 98.505 371 96 C359.073 87.762 346.164 86.833 332.09 86.867 C331.196 86.866 330.303 86.865 329.382 86.864 C327.516 86.864 325.65 86.865 323.783 86.87 C320.914 86.875 318.044 86.87 315.174 86.863 C313.354 86.864 311.535 86.865 309.715 86.867 C308.855 86.865 307.994 86.863 307.108 86.861 C301.115 86.885 301.115 86.885 300 88 Z M300 312 C299.901 314.149 299.874 316.302 299.873 318.453 C299.871 319.136 299.87 319.818 299.868 320.52 C299.864 322.823 299.867 325.125 299.871 327.428 C299.869 329.072 299.867 330.715 299.865 332.359 C299.861 336.836 299.863 341.313 299.866 345.791 C299.868 350.465 299.866 355.14 299.864 359.815 C299.862 367.667 299.865 375.519 299.87 383.371 C299.875 392.462 299.873 401.553 299.868 410.645 C299.863 418.436 299.863 426.227 299.865 434.018 C299.867 438.678 299.867 443.337 299.864 447.997 C299.861 452.377 299.863 456.756 299.869 461.136 C299.87 462.748 299.87 464.36 299.867 465.973 C299.865 468.164 299.868 470.355 299.873 472.547 C299.873 473.776 299.874 475.005 299.874 476.272 C300 479 300 479 301 480 C302.527 480.098 304.059 480.128 305.589 480.129 C306.568 480.133 307.547 480.136 308.556 480.139 C309.625 480.137 310.695 480.135 311.797 480.133 C312.897 480.134 313.996 480.135 315.129 480.136 C317.47 480.136 319.81 480.135 322.151 480.13 C325.693 480.125 329.235 480.13 332.777 480.137 C335.055 480.136 337.332 480.135 339.609 480.133 C340.132 480.134 340.132 480.134 342.777 480.139 C354.158 480.104 364.604 480.046 375 475 C375 474.34 375 473.68 375 473 C375.557 472.918 376.114 472.835 376.688 472.75 C382.747 470.785 385.432 466.109 388.57 460.926 C391.941 454.028 393.534 447.2 394.172 439.582 C394.251 438.685 394.331 437.787 394.413 436.863 C395.262 426.283 395.3 415.698 395.261 405.09 C395.25 401.701 395.261 398.313 395.273 394.924 C395.281 383.853 394.996 372.861 394.094 361.824 C394.014 360.849 393.935 359.873 393.853 358.868 C392.776 347.013 389.912 336.848 383 327 C382.299 325.928 381.597 324.855 380.875 323.75 C372.276 315.524 360.031 312.06 348.418 311.434 C348.05 311.413 348.05 311.413 346.188 311.309 C337.973 310.889 329.761 310.849 321.537 310.87 C318.947 310.875 316.356 310.87 313.766 310.863 C312.115 310.864 310.464 310.865 308.812 310.867 C308.04 310.865 307.267 310.863 306.471 310.861 C301.115 310.885 301.115 310.885 300 312 Z " fill="#FFC700" transform="translate(631,356)"/>
<path d="M0 0 C8.25 0 16.5 0 25 0 C25.495 2.227 25.99 4.455 26.5 6.75 C28.699 16.334 31.44 25.76 34.182 35.2 C35.898 41.113 37.546 47.017 39 53 C39.493 54.835 39.993 56.669 40.5 58.5 C41.743 62.987 42.869 67.478 44 72 C44.33 48.24 44.66 24.48 45 0 C50.61 0 56.22 0 62 0 C62 41.58 62 83.16 62 126 C55.4 126 48.8 126 42 126 C40.21 121.227 38.703 117.123 37.559 112.277 C36.882 109.521 36.116 106.797 35.344 104.066 C35.043 103.005 34.743 101.943 34.434 100.85 C33.812 98.662 33.19 96.474 32.566 94.287 C31.036 88.873 29.621 83.475 28.447 77.973 C27.79 75.075 26.906 72.266 26 69.438 C24.496 64.643 23.183 59.882 22 55 C20.68 50.05 19.36 45.1 18 40 C17.67 68.38 17.34 96.76 17 126 C11.39 126 5.78 126 0 126 C0 84.42 0 42.84 0 0 Z " fill="#FFC700" transform="translate(742,1057)"/>
<path d="M0 0 C39 0 39 0 49 4 C49 4.66 49 5.32 49 6 C49.99 6 50.98 6 52 6 C52 6.99 52 7.98 52 9 C52.99 9.33 53.98 9.66 55 10 C58.516 16.867 58.453 23.402 58.375 31 C58.387 32.137 58.398 33.274 58.41 34.445 C58.384 41.96 58.151 48.434 52.957 54.312 C52.249 54.869 51.542 55.426 50.812 56 C50.097 56.578 49.382 57.155 48.645 57.75 C48.102 58.162 47.559 58.575 47 59 C48.072 59.536 49.145 60.072 50.25 60.625 C55.804 63.872 57.93 68.145 59.75 74.188 C62.677 87.104 63.09 104.15 55.938 115.75 C55.298 116.493 54.659 117.235 54 118 C53.34 118 52.68 118 52 118 C52 118.66 52 119.32 52 120 C36.674 129.995 17.358 126 0 126 C0 84.42 0 42.84 0 0 Z M19 18 C19 28.89 19 39.78 19 51 C32 51 32 51 37 47 C39.846 43.257 39.368 38.631 39.375 34.125 C39.399 33.335 39.424 32.545 39.449 31.73 C39.476 26.345 38.592 23.259 35 19 C30.22 16.61 24.344 18 19 18 Z M19 69 C19 81.87 19 94.74 19 108 C34 108 34 108 39 105 C41.452 100.066 41.334 95.018 41.312 89.625 C41.329 88.813 41.345 88.001 41.361 87.164 C41.366 81.447 40.375 77.213 38 72 C36 70 36 70 31 69 C27.04 69 23.08 69 19 69 Z " fill="#FFC700" transform="translate(496,1057)"/>
<path d="M0 0 C6.27 0 12.54 0 19 0 C19.33 34.65 19.66 69.3 20 105 C20.66 105 21.32 105 22 105 C22.165 105.33 22.165 105.33 23 107 C27.473 108.491 31.527 108.491 36 107 C36.33 106.34 36.66 105.68 37 105 C37.66 105 38.32 105 39 105 C39 70.35 39 35.7 39 0 C45.27 0 51.54 0 58 0 C58.07 13.665 58.123 27.33 58.155 40.996 C58.171 47.342 58.192 53.687 58.226 60.033 C58.259 66.16 58.277 72.287 58.285 78.415 C58.29 80.749 58.301 83.083 58.317 85.418 C58.339 88.695 58.342 91.971 58.341 95.248 C58.351 96.207 58.362 97.165 58.373 98.153 C58.345 104.284 57.302 109.315 55 115 C54.34 115 53.68 115 53 115 C52.773 115.743 52.546 116.485 52.312 117.25 C49.804 122.506 45.589 124.431 40.265 126.363 C36.397 127.451 32.624 127.532 28.625 127.5 C27.79 127.494 26.955 127.489 26.095 127.483 C18.43 127.261 12.938 125.558 7.18 120.355 C0.637 113.354 -0.442 106.55 -0.341 97.291 C-0.341 96.764 -0.341 96.764 -0.342 94.096 C-0.34 90.628 -0.317 87.16 -0.293 83.691 C-0.287 81.28 -0.283 78.869 -0.28 76.457 C-0.269 70.123 -0.239 63.789 -0.206 57.455 C-0.175 50.986 -0.162 44.517 -0.146 38.049 C-0.114 25.366 -0.063 12.683 0 0 Z " fill="#FFC701" transform="translate(568,1057)"/>
<path d="M0 0 C1.75 1.438 1.75 1.438 3 3 C3 3.99 3 4.98 3 6 C3.66 6 4.32 6 5 6 C10.071 14.716 9.311 22.117 9 32 C3.06 32 -2.88 32 -9 32 C-9.688 24.687 -9.688 24.687 -9.866 22.397 C-10.269 18.865 -10.608 17.321 -13.395 15.039 C-17.474 13.412 -20.597 13.657 -24.812 14.688 C-27 16 -27 16 -27.812 18.062 C-27.843 18.547 -27.843 18.547 -28 21 C-28.031 21.332 -28.031 21.332 -28.188 23.012 C-28.492 28.461 -27.369 32.222 -24.875 37.055 C-24 39 -24 39 -24 42 C-23.505 42.165 -23.505 42.165 -21 43 C-19.5 44.559 -19.5 44.559 -18 46.438 C-16.036 48.888 -14.679 50.214 -12 52 C-12 52.66 -12 53.32 -12 54 C-11.01 54.33 -10.02 54.66 -9 55 C-9 55.66 -9 56.32 -9 57 C-8.01 57.33 -7.02 57.66 -6 58 C-6 58.66 -6 59.32 -6 60 C-5.01 60.33 -4.02 60.66 -3 61 C-3 61.66 -3 62.32 -3 63 C-2.01 63.33 -1.02 63.66 0 64 C1.5 65.785 1.5 65.785 3 68.062 C3.495 68.796 3.99 69.529 4.5 70.285 C8.727 77.936 9.522 84.237 9.5 92.875 C9.528 93.9 9.557 94.925 9.586 95.98 C9.606 104.072 7.779 110.773 2.292 116.911 C-4.789 123.649 -12.306 124.407 -21.691 124.365 C-27.278 124.213 -31.842 123.251 -37 121 C-37 120.34 -37 119.68 -37 119 C-37.557 118.794 -38.114 118.588 -38.688 118.375 C-44.482 114.93 -47.344 109.371 -49 103 C-49.328 99.65 -49.287 96.362 -49.188 93 C-49.126 90.03 -49.064 87.06 -49 84 C-42.73 84 -36.46 84 -30 84 C-29.625 92.25 -29.625 92.25 -29.522 94.829 C-29.161 101.733 -29.161 101.733 -27 105 C-25.583 105.027 -24.167 105.047 -22.75 105.062 C-21.961 105.074 -21.172 105.086 -20.359 105.098 C-18.061 105.003 -16.169 104.763 -14 104 C-13.67 103.34 -13.34 102.68 -13 102 C-12.34 102 -11.68 102 -11 102 C-10.403 90.201 -11.558 84.037 -19 75 C-19 74.34 -19 73.68 -19 73 C-19.495 72.835 -19.495 72.835 -22 72 C-22 71.34 -22 70.68 -22 70 C-22.495 69.835 -22.495 69.835 -25 69 C-25 68.34 -25 67.68 -25 67 C-25.278 66.876 -25.278 66.876 -26.688 66.25 C-30.52 64.179 -34.214 61.373 -37 58 C-37 57.01 -37 56.02 -37 55 C-37.99 54.67 -38.98 54.34 -40 54 C-47.582 44.404 -50.135 33.01 -49 21 C-47.877 14.3 -46.498 8.224 -42 3 C-41.34 3 -40.68 3 -40 3 C-40 2.34 -40 1.68 -40 1 C-28.044 -6.797 -12.534 -7.094 0 0 Z " fill="#FFC700" transform="translate(998,1060)"/>
<path d="M0 0 C8.022 7.257 9.251 15.398 9.886 25.629 C9.972 27.417 9.992 29.209 10 31 C9 32 9 32 7.234 32.114 C6.485 32.108 5.736 32.103 4.965 32.098 C4.156 32.094 3.347 32.091 2.514 32.088 C1.664 32.08 0.813 32.071 -0.062 32.062 C-0.917 32.058 -1.771 32.053 -2.65 32.049 C-4.767 32.037 -6.883 32.019 -9 32 C-9.121 30.929 -9.242 29.858 -9.367 28.754 C-9.536 27.357 -9.705 25.96 -9.875 24.562 C-9.954 23.855 -10.032 23.148 -10.113 22.42 C-10.339 20.603 -10.663 18.799 -11 17 C-11.66 16.67 -12.32 16.34 -13 16 C-13 15.34 -13 14.68 -13 14 C-23.492 13.589 -23.492 13.589 -27 16 C-27.812 18.625 -27.812 18.625 -28 22 C-28.103 23.258 -28.206 24.516 -28.312 25.812 C-28.237 32.33 -24.988 38.015 -21 43 C-21 43.66 -21 44.32 -21 45 C-20.505 45.165 -20.505 45.165 -18 46 C-18 46.66 -18 47.32 -18 48 C-17.01 48.33 -16.02 48.66 -15 49 C-15 49.66 -15 50.32 -15 51 C-14.01 51.33 -13.02 51.66 -12 52 C-12 52.66 -12 53.32 -12 54 C-11.01 54.33 -10.02 54.66 -9 55 C-9 55.66 -9 56.32 -9 57 C-8.01 57 -7.02 57 -6 57 C-3 60.333 -3 60.333 -3 63 C-2.01 63.33 -1.02 63.66 0 64 C8.228 73.985 10.431 84.42 10 97 C9.995 97.732 9.99 98.464 9.984 99.219 C9.604 106.944 5.827 113.736 0.125 118.938 C-8.665 124.739 -17.744 124.994 -28 124 C-31.277 123.282 -33.914 122.347 -37 121 C-37 120.34 -37 119.68 -37 119 C-37.557 118.794 -38.114 118.588 -38.688 118.375 C-44.277 115.052 -46.841 110.241 -48.508 104.145 C-49.554 97.461 -49.161 90.747 -49 84 C-42.73 84 -36.46 84 -30 84 C-29.625 92.25 -29.625 92.25 -29.522 94.829 C-29.161 101.733 -29.161 101.733 -27 105 C-16.249 105.564 -16.249 105.564 -12 102 C-9.808 97.616 -10.651 91.784 -11 87 C-12.5 83.312 -12.5 83.312 -14 81 C-14 80.34 -14 79.68 -14 79 C-14.66 79 -15.32 79 -16 79 C-16 78.01 -16 77.02 -16 76 C-16.99 75.67 -17.98 75.34 -19 75 C-19 74.34 -19 73.68 -19 73 C-19.495 72.835 -19.495 72.835 -22 72 C-22 71.34 -22 70.68 -22 70 C-22.495 69.835 -22.495 69.835 -25 69 C-25 68.34 -25 67.68 -25 67 C-25.495 66.835 -25.495 66.835 -28 66 C-28 65.34 -28 64.68 -28 64 C-28.619 63.691 -29.237 63.381 -29.875 63.062 C-31.25 62.375 -32.625 61.688 -34 61 C-34 60.01 -34 59.02 -34 58 C-34.99 57.67 -35.98 57.34 -37 57 C-37 56.34 -37 55.68 -37 55 C-37.99 54.67 -38.98 54.34 -40 54 C-41.332 51.841 -42.468 49.775 -43.562 47.5 C-43.873 46.864 -44.183 46.227 -44.502 45.572 C-46.779 40.76 -48.447 36.293 -49 31 C-49.081 30.322 -49.162 29.644 -49.246 28.945 C-49.781 20.088 -47.323 10.13 -41.562 3.312 C-30.874 -7.263 -12.78 -7.646 0 0 Z " fill="#FFC701" transform="translate(686,1060)"/>
<path d="M0 0 C0.546 0.039 0.546 0.039 3.309 0.238 C10.42 1.22 16.031 3.804 20.812 9.25 C26.596 17.306 27.376 25.911 27.562 35.688 C26.562 36.688 26.562 36.688 24.797 36.801 C24.048 36.796 23.299 36.791 22.527 36.785 C21.718 36.782 20.91 36.779 20.076 36.775 C19.226 36.767 18.376 36.759 17.5 36.75 C16.646 36.745 15.792 36.741 14.912 36.736 C12.796 36.725 10.679 36.707 8.562 36.688 C8.537 35.963 8.511 35.239 8.484 34.492 C8.124 28.346 7.644 24.388 3.562 19.688 C0.424 18.118 -1.976 18.335 -5.438 18.688 C-8.375 20.312 -8.375 20.312 -10.438 23.688 C-11.75 31.574 -11.212 38.47 -6.617 45.109 C-2.375 50.127 2.29 54.704 7.044 59.234 C9.253 61.349 11.41 63.514 13.562 65.688 C14.255 66.382 14.947 67.077 15.66 67.793 C20.593 73.02 23.448 77.831 25.562 84.688 C25.787 85.378 26.011 86.069 26.242 86.781 C29.27 97.234 27.022 107.046 23.312 117.062 C19.139 123.323 13.758 126.73 6.562 128.688 C3.569 129.099 0.644 129.165 -2.375 129.125 C-3.164 129.12 -3.953 129.114 -4.766 129.109 C-10.688 128.954 -15.424 128.002 -20.438 124.688 C-21.283 124.151 -22.129 123.615 -23 123.062 C-23.474 122.609 -23.949 122.155 -24.438 121.688 C-24.438 121.027 -24.438 120.368 -24.438 119.688 C-25.097 119.688 -25.758 119.688 -26.438 119.688 C-27.094 118.485 -27.737 117.275 -28.375 116.062 C-28.735 115.39 -29.094 114.717 -29.465 114.023 C-31.776 108.472 -31.565 102.716 -31.5 96.812 C-31.479 94.131 -31.459 91.45 -31.438 88.688 C-25.497 88.688 -19.558 88.688 -13.438 88.688 C-13.275 92.138 -13.112 95.589 -12.949 99.039 C-12.406 102.913 -11.602 105.433 -9.438 108.688 C-5.613 110.292 -1.508 109.893 2.5 109.125 C4.562 107.688 4.562 107.688 5.938 105.188 C7.189 98.181 6.347 91.045 2.484 85 C-2.057 78.527 -7.795 73.182 -13.438 67.688 C-15.104 66.021 -16.771 64.354 -18.438 62.688 C-19.201 61.966 -19.964 61.244 -20.75 60.5 C-22.438 58.688 -22.438 58.688 -22.438 56.688 C-23.097 56.688 -23.758 56.688 -24.438 56.688 C-28.306 49.696 -31.364 43.753 -31.438 35.688 C-31.456 35.324 -31.456 35.324 -31.551 33.484 C-31.884 23.454 -29.79 13.833 -23.09 6.074 C-16.778 0.777 -7.936 -0.626 0 0 Z " fill="#FFC701" transform="translate(913.4375,1055.3125)"/>
<path d="M0 0 C17.82 0 35.64 0 54 0 C54 5.94 54 11.88 54 18 C42.78 18 31.56 18 20 18 C20 29.55 20 41.1 20 53 C28.91 53 37.82 53 47 53 C47 58.94 47 64.88 47 71 C38.09 71 29.18 71 20 71 C20 83.21 20 95.42 20 108 C31.22 108 42.44 108 54 108 C54 113.94 54 119.88 54 126 C36.18 126 18.36 126 0 126 C0 84.42 0 42.84 0 0 Z " fill="#FFC700" transform="translate(818,1057)"/>
<path d="M0 0 C6.6 0 13.2 0 20 0 C20 41.58 20 83.16 20 126 C13.4 126 6.8 126 0 126 C0 84.42 0 42.84 0 0 Z " fill="#FFC700" transform="translate(707,1057)"/>
</svg>
